<svg id="Layer_1" data-name="Layer 1" xmlns="http://www.w3.org/2000/svg" viewBox="0 0 500 600"><defs><style>.cls-1{fill:#fff;}</style></defs><title>logo_icon</title><path d="M245.1,50.86S224.29,77,169.46,77.06s-81.34-27-81.34-27L68.94,81.56l20,13s25.71,19.57,80.53,19.55S250,94.56,250,94.56s25.7,19.57,80.53,19.55S411,94.51,411,94.51l20-13L411.84,50s-26.51,27-81.33,27-75.65-26.17-75.65-26.17Z"/><path d="M34.64,132.93S86.1,172.47,86.11,209,42.34,293.59,42.36,366.12C42.39,486.83,250.11,550,250.11,550s207.68-63.28,207.65-184c0-72.53-43.82-120.56-43.83-157.1s51.43-76.1,51.43-76.1l-15.79-28.1S376.22,143.41,376.24,206s42,82.29,42,164c0,0,9.5,47.08-62.75,87.6s-105.4,47.11-105.4,47.11-33.17-6.56-105.44-47.05-62.79-87.57-62.79-87.57c0-81.75,41.94-101.47,41.93-164.06S50.42,104.82,50.42,104.82Z"/><path d="M307.65,277.6V248a59.44,59.44,0,0,0-59.28-59.26h0A59.45,59.45,0,0,0,189.1,248v29.63H171.82l0,126.77,153.12,0,0-126.77Zm-90.56-32.9a28.07,28.07,0,0,1,28-28h6.59a28.06,28.06,0,0,1,28,28v32.93H217.1Z"/><path class="cls-1" d="M266.52,326.9a18.11,18.11,0,1,0-29.63,14V373h23V340.87A18,18,0,0,0,266.52,326.9Z"/></svg>