<svg id="Layer_1" data-name="Layer 1" xmlns="http://www.w3.org/2000/svg" viewBox="0 0 400 100"><title>logo</title><path d="M105.38,32.38h-29V44H103v9.51H76.39V67.62h30.33v9.84H65.2V22.68h40.18Z"/><path d="M115.63,22.76h39.06v9.62H127V45h24.26V54.5H127v23H115.63Z"/><path d="M194.18,22.68h11.89L187.4,77.46H176.58L158.06,22.68h12.22l11.9,41.59Z"/><path d="M218.12,28.41A22.57,22.57,0,0,1,235,21.64q13.68,0,20,9.07a19.86,19.86,0,0,1,3.76,10.22H247.27a15.74,15.74,0,0,0-2.8-5.94q-3.06-3.57-9.07-3.57a11.19,11.19,0,0,0-9.65,5q-3.52,5-3.53,14.26t3.72,13.8a11.7,11.7,0,0,0,9.48,4.59q5.88,0,9-3.94a17.24,17.24,0,0,0,2.84-6.35H258.6a24.63,24.63,0,0,1-7.52,14.57Q245,79,235.59,79q-11.7,0-18.39-7.58t-6.69-20.89Q210.51,36.18,218.12,28.41Z"/><path d="M278.3,77.46H266.93V22.68H278.3Z"/><path d="M297.25,60.55a11.15,11.15,0,0,0,2.09,5.62q2.85,3.38,9.75,3.38a21.13,21.13,0,0,0,6.72-.89q4.89-1.71,4.89-6.36a4.67,4.67,0,0,0-2.39-4.2,26.19,26.19,0,0,0-7.61-2.56l-5.93-1.3q-8.75-1.93-12-4.2-5.53-3.8-5.54-11.86A15.74,15.74,0,0,1,292.64,26q5.42-4.87,15.91-4.87a24.43,24.43,0,0,1,15,4.59Q329.69,30.27,330,39H319a7.84,7.84,0,0,0-4.42-7,15.12,15.12,0,0,0-6.82-1.38,13,13,0,0,0-7.24,1.78,5.64,5.64,0,0,0-2.71,5,4.71,4.71,0,0,0,2.67,4.39A33.47,33.47,0,0,0,307.76,44l9.61,2.26q6.31,1.5,9.48,4,4.89,3.87,4.89,11.19a15.73,15.73,0,0,1-5.8,12.47q-5.81,5-16.4,5-10.82,0-17-4.89t-6.2-13.44Z"/><path d="M382,72.6Q375.74,79,364,79T346.05,72.6q-8.32-7.84-8.32-22.6,0-15,8.32-22.6Q352.26,21,364,21T382,27.4q8.3,7.55,8.29,22.6Q390.24,64.76,382,72.6Zm-7.15-8.33q4-5,4-14.27t-4-14.25a13.06,13.06,0,0,0-10.8-5,13.22,13.22,0,0,0-10.85,5q-4,5-4,14.27t4,14.27a13.22,13.22,0,0,0,10.85,5A13.07,13.07,0,0,0,374.8,64.27Z"/><path d="M55.22,39.55a24.4,24.4,0,0,0-3.92-8.87,18.1,18.1,0,0,0-9.36-7,29.05,29.05,0,0,0-8.5-1.19H9.76V77.44H33.44q12.45,0,18.42-10.24,4.41-7.61,4.41-18.56A42.31,42.31,0,0,0,55.22,39.55ZM40,49.89V69.17H26.18V49.89a10.87,10.87,0,1,1,13.83,0Z"/></svg>