<svg id="Layer_1" data-name="Layer 1" xmlns="http://www.w3.org/2000/svg" viewBox="0 0 83 83"><defs><style>.cls-1,.cls-2{fill:#fff;}.cls-2{opacity:0.15;}</style></defs><rect width="83" height="83"/><path class="cls-1" d="M50.75,28.33a.83.83,0,1,1,0-1.66.83.83,0,0,1,.82.83A.81.81,0,0,1,50.75,28.33Zm0-1.35a.53.53,0,0,0-.53.52.52.52,0,0,0,.53.52.51.51,0,0,0,.51-.52A.52.52,0,0,0,50.75,27Z"/><path class="cls-1" d="M53.45,28.33a.83.83,0,1,1,.83-.83A.83.83,0,0,1,53.45,28.33Zm0-1.35a.52.52,0,0,0-.52.52.52.52,0,1,0,1,0A.53.53,0,0,0,53.45,27Z"/><path class="cls-1" d="M56.15,28.33a.82.82,0,0,1-.83-.83.83.83,0,1,1,.83.83Zm0-1.35a.52.52,0,0,0-.52.52.52.52,0,0,0,1,0A.52.52,0,0,0,56.15,27Z"/><path class="cls-1" d="M55.4,33H45.51a1,1,0,0,1-1-1v-.57a1,1,0,0,1,1-1H55.4v.31a.66.66,0,0,0-.66.67v.57a.66.66,0,0,0,.66.67Zm-9.89-2.22a.67.67,0,0,0-.66.67v.57a.67.67,0,0,0,.66.67h9.18a1,1,0,0,1-.26-.67v-.57a1,1,0,0,1,.26-.67Z"/><path class="cls-1" d="M56.1,33h-.7a1,1,0,0,1-1-1v-.57a1,1,0,0,1,1-1h.7a1,1,0,0,1,1,1v.57A1,1,0,0,1,56.1,33Zm-.7-2.22a.66.66,0,0,0-.66.67v.57a.66.66,0,0,0,.66.67h.7a.67.67,0,0,0,.67-.67v-.57a.67.67,0,0,0-.67-.67Z"/><path class="cls-1" d="M39.47,38.86a7.34,7.34,0,0,1-.61,1.47,2.26,2.26,0,0,0-2.55.44,2.23,2.23,0,0,0-.65,1.61h2.61v0a.26.26,0,0,1,.26-.27h1.6a.25.25,0,0,0,.26-.26V36.12H38.07a2.18,2.18,0,0,0-.09.63A2.22,2.22,0,0,0,39.47,38.86Z"/><path class="cls-1" d="M38.42,44.82H26.16V42.23h2.92v.15a2.54,2.54,0,0,1-.17.87,7.54,7.54,0,0,0,1.18.49,2.39,2.39,0,0,1,4.4,0,7.54,7.54,0,0,0,1.18-.49,2.54,2.54,0,0,1-.17-.87v-.15h2.92Zm-12-.31H38.11v-2H35.82a2.26,2.26,0,0,0,.19.72l.06.13-.13.07a7.7,7.7,0,0,1-1.49.62l-.14,0L34.26,44a2.09,2.09,0,0,0-3.94,0l-.05.14-.14,0a8,8,0,0,1-1.49-.62l-.13-.07.06-.13a2.26,2.26,0,0,0,.19-.72H26.47Z"/><path class="cls-1" d="M56.84,44.82H44.58V42.23H56.84Zm-12-.31H56.53v-2H44.89Z"/><path class="cls-1" d="M44.47,45.22H38.53a.42.42,0,0,1-.42-.42V42.38a.43.43,0,0,1,.42-.44h1.6a.11.11,0,0,0,.11-.11V36h2.52v5.87a.11.11,0,0,0,.11.11h1.6a.42.42,0,0,1,.42.42V44.8A.42.42,0,0,1,44.47,45.22Zm-5.94-3a.11.11,0,0,0-.11.11V44.8a.11.11,0,0,0,.11.11h5.94a.11.11,0,0,0,.11-.11V42.38a.12.12,0,0,0-.11-.13h-1.6a.42.42,0,0,1-.42-.42V36.27h-1.9v5.56a.42.42,0,0,1-.42.42Z"/><path class="cls-1" d="M57.83,36.27h-20l.06-.2a2.42,2.42,0,0,1,1.36-1.52,8,8,0,0,0-.49-1.18,2.48,2.48,0,0,1-.9.17,2.38,2.38,0,0,1-1.69-.7,2.41,2.41,0,0,1-.53-2.59,7.31,7.31,0,0,0-1.18-.49,2.39,2.39,0,0,1-4.4,0,7.31,7.31,0,0,0-1.18.49,2.41,2.41,0,0,1-.53,2.59,2.38,2.38,0,0,1-1.69.7,2.48,2.48,0,0,1-.9-.17,8,8,0,0,0-.49,1.18,2.42,2.42,0,0,1,1.36,1.52l.06.2H25.17a3.33,3.33,0,0,1-1.7-.47l-.25-.16,0,0a1.74,1.74,0,0,1-.22-.18l0,0-.12-.12-.1-.1L22.55,35a.19.19,0,0,0,0-.06,2.43,2.43,0,0,1-.14-.2l0,0s0,0,0,0l-.11-.18a.25.25,0,0,0,0-.07.05.05,0,0,0,0,0,1.12,1.12,0,0,1,0-.13l-.05-.12,0-.07L22,34s0-.08,0-.13a.86.86,0,0,1,0-.13,1.67,1.67,0,0,1-.05-.18s0-.12,0-.19,0,0,0-.05,0,0,0-.08,0-.22,0-.33v-5c0-.11,0-.23,0-.34s0-.05,0-.07a.08.08,0,0,0,0,0,1.24,1.24,0,0,1,0-.22,1,1,0,0,1,0-.15l0-.17a.47.47,0,0,1,0-.09l0-.06a.92.92,0,0,0,0-.09l.05-.12a.3.3,0,0,0,0-.1s0,0,0-.05a.56.56,0,0,1,0-.08c0-.05.06-.11.09-.17l0,0,0-.07.1-.13,0,0,0-.05.06-.07.12-.14,0,0c.06-.07.12-.12.19-.19l0,0,.05,0,.16-.13,0,0,.2-.13,0,0a3.39,3.39,0,0,1,1.71-.47H57.83a3.3,3.3,0,0,1,1,.15,3.34,3.34,0,0,1,2.36,3.21v5a3.38,3.38,0,0,1-1.75,2.95A3.33,3.33,0,0,1,57.83,36.27ZM38.29,36H57.83a3,3,0,0,0,3-3v-5A3.06,3.06,0,0,0,58.73,25a3.38,3.38,0,0,0-.9-.13H25.17a3.1,3.1,0,0,0-1.54.42l0,0-.19.13h0l-.15.12-.07.06-.18.18-.13-.09.1.13-.12.13,0,0a.18.18,0,0,1-.05.07v0l-.09.13a.09.09,0,0,0,0,.05l0,0a1.14,1.14,0,0,0-.09.16l0,.05,0,.06a.31.31,0,0,1,0,.09l0,.09,0,.1,0,0,0,.08a1.21,1.21,0,0,0,0,.14l0,.15a1.35,1.35,0,0,0,0,.18s0,.06,0,.08,0,0,0,0,0,.2,0,.31v5c0,.1,0,.2,0,.3s0,0,0,0,0,.05,0,.07a.84.84,0,0,0,0,.18l0,.13v0l0,.11a.81.81,0,0,0,0,.11l0,.05a.94.94,0,0,1,0,.09l0,.08.05.12s0,0,0,0a.08.08,0,0,0,0,0,1,1,0,0,0,.1.17l0,0,0,0,.12.18a.26.26,0,0,1,.06.08l.13.14A.15.15,0,0,1,23,35l0,0,.12.11,0,0,.2.15,0,0a1.64,1.64,0,0,0,.22.14,3,3,0,0,0,1.55.43h1.12a2.06,2.06,0,0,0-1.23-1.17l-.14,0,0-.14a8,8,0,0,1,.62-1.51l.07-.13.14.07a2.15,2.15,0,0,0,.9.2,2.09,2.09,0,0,0,1.88-3l-.06-.13.13-.07a6.78,6.78,0,0,1,1.49-.62l.14-.05.05.14a2.09,2.09,0,0,0,3.94,0l.05-.14.14.05a6.78,6.78,0,0,1,1.49.62l.13.07-.06.13a2.09,2.09,0,0,0,1.88,3,2.15,2.15,0,0,0,.9-.2l.14-.07.07.13a8,8,0,0,1,.62,1.51l0,.14-.14,0A2.06,2.06,0,0,0,38.29,36Z"/><path class="cls-1" d="M34.31,44.12,34.26,44a2.09,2.09,0,0,0-3.94,0l-.05.14-.14,0a8,8,0,0,1-1.49-.62l-.13-.07.06-.13a2.4,2.4,0,0,0,.2-.88,2.09,2.09,0,0,0-3-1.91l-.14.06-.07-.12a8.05,8.05,0,0,1-.62-1.5l0-.14.14-.05a2.1,2.1,0,0,0,1.39-2,2.17,2.17,0,0,0-.09-.59,2.07,2.07,0,0,0-1.3-1.37l-.14,0,0-.14a8,8,0,0,1,.62-1.51l.07-.13.14.07a2.15,2.15,0,0,0,.9.2,2.09,2.09,0,0,0,1.88-3l-.06-.13.13-.07a6.78,6.78,0,0,1,1.49-.62l.14-.05.05.14a2.09,2.09,0,0,0,3.94,0l.05-.14.14.05a6.78,6.78,0,0,1,1.49.62l.13.07-.06.13a2.09,2.09,0,0,0,1.88,3,2.15,2.15,0,0,0,.9-.2l.14-.07.07.13a8,8,0,0,1,.62,1.51l0,.14-.14,0a2.09,2.09,0,0,0-1.3,1.37,2.06,2.06,0,0,0-.09.59,2.1,2.1,0,0,0,1.39,2l.14.05,0,.14a8.05,8.05,0,0,1-.62,1.5l-.07.12-.14-.06a2.09,2.09,0,0,0-3,1.91,2.4,2.4,0,0,0,.2.88l.06.13-.13.07a7.7,7.7,0,0,1-1.49.62Zm-5.4-.87a7.54,7.54,0,0,0,1.18.49,2.39,2.39,0,0,1,4.4,0,7.54,7.54,0,0,0,1.18-.49,2.54,2.54,0,0,1-.17-.87A2.39,2.39,0,0,1,37.9,40a2.47,2.47,0,0,1,.89.17A7.43,7.43,0,0,0,39.28,39a2.42,2.42,0,0,1-1.46-2.21,2.73,2.73,0,0,1,.1-.68,2.42,2.42,0,0,1,1.36-1.52,8,8,0,0,0-.49-1.18,2.48,2.48,0,0,1-.9.17,2.38,2.38,0,0,1-1.69-.7,2.41,2.41,0,0,1-.53-2.59,7.31,7.31,0,0,0-1.18-.49,2.39,2.39,0,0,1-4.4,0,7.31,7.31,0,0,0-1.18.49,2.41,2.41,0,0,1-.53,2.59,2.38,2.38,0,0,1-1.69.7,2.48,2.48,0,0,1-.9-.17,8,8,0,0,0-.49,1.18,2.4,2.4,0,0,1,0,4.41,7.43,7.43,0,0,0,.49,1.17,2.47,2.47,0,0,1,.89-.17,2.39,2.39,0,0,1,2.4,2.42A2.54,2.54,0,0,1,28.91,43.25Zm3.38-2.61a3.9,3.9,0,0,1-3.9-3.89,3.23,3.23,0,0,1,.07-.66,3.88,3.88,0,0,1,7.66,0,3.16,3.16,0,0,1,.07.66A3.9,3.9,0,0,1,32.29,40.64Zm0-7.48a3.58,3.58,0,0,0-3.53,3,3.49,3.49,0,0,0-.06.61,3.59,3.59,0,0,0,7.18,0,3.4,3.4,0,0,0-.06-.61A3.58,3.58,0,0,0,32.29,33.16Z"/><path class="cls-1" d="M32.29,40.64a3.9,3.9,0,0,1-3.9-3.89,3.23,3.23,0,0,1,.07-.66l0-.13H36.1l0,.13a3.16,3.16,0,0,1,.07.66A3.9,3.9,0,0,1,32.29,40.64Zm-3.55-4.37a2.74,2.74,0,0,0,0,.48,3.59,3.59,0,0,0,7.18,0,4.23,4.23,0,0,0,0-.48Z"/><path class="cls-1" d="M44.47,45.68H38.53a.88.88,0,0,1-.74-.4H25.69V41.76h2.5a1.54,1.54,0,0,0-.36-.55,1.62,1.62,0,0,0-1.15-.47,1.69,1.69,0,0,0-.7.15l-.53.25-.28-.51A9,9,0,0,1,24.52,39l-.17-.56.55-.2A1.62,1.62,0,0,0,26,36.75h-.81a3.86,3.86,0,0,1-1.94-.54L23,36,22.88,36l-.21-.17-.06,0-.13-.12-.1-.11-.26-.32A1.17,1.17,0,0,1,22,35h0l0-.06,0,0-.12-.21a.89.89,0,0,1-.05-.1l-.18-.44a.88.88,0,0,1-.05-.15s0-.11-.05-.17,0-.11,0-.18a1.19,1.19,0,0,1,0-.24v0a.43.43,0,0,1,0-.12c0-.13,0-.25,0-.37v-5c0-.13,0-.25,0-.38a.59.59,0,0,1,0-.13v0c0-.07,0-.15,0-.24l.05-.17a1.08,1.08,0,0,1,.05-.19l0-.1.12-.31s0,0,0-.06l0-.07a.75.75,0,0,1,.08-.14s.06-.11.09-.17l0,0a.22.22,0,0,1,0-.08l.1-.14.14-.19.14-.15,0-.05.19-.18,0,0,.08-.07.19-.14.1-.07a1,1,0,0,1,.15-.1l.09-.06a3.82,3.82,0,0,1,1.91-.51H57.83a4,4,0,0,1,1.13.16,3.83,3.83,0,0,1,2.69,3.66v5a3.82,3.82,0,0,1-3.82,3.82H43.23v4.73h1.25a.89.89,0,0,1,.65.29H57.31v3.52H45.21A.88.88,0,0,1,44.47,45.68Zm-18.16-1h11.9l.07.22a.27.27,0,0,0,.25.18h5.94a.27.27,0,0,0,.25-.18l.07-.22h11.9V42.38H44.79l-.09-.15a.27.27,0,0,0-.23-.14H42.6v-6H57.83a3.2,3.2,0,0,0,3.2-3.2v-5a3.2,3.2,0,0,0-2.25-3.06,3.08,3.08,0,0,0-1-.14H25.17a3.17,3.17,0,0,0-1.6.43l-.07,0-.16.11-.06,0-.15.13-.08.06-.18.18-.05.05-.11.13-.12.15a.49.49,0,0,0-.07.11l0,0a.1.1,0,0,0,0,.05l0,0a.56.56,0,0,0-.07.13l0,0-.05.09v0l0,.09-.05.12a.25.25,0,0,1,0,.09v.05a.24.24,0,0,1,0,.07v0l0,.14,0,.15a.81.81,0,0,0,0,.2v.05a.23.23,0,0,0,0,.07c0,.11,0,.22,0,.33v5c0,.11,0,.21,0,.32a.13.13,0,0,0,0,.06v0a1.09,1.09,0,0,0,0,.17v0l0,.14,0,.15,0,.11,0,.07a.08.08,0,0,1,0,.06l0,.07.09.2,0,0,.11.19,0,.07.12.17.06.07.24.28.12.11,0,0,.21.17,0,0,.24.16a3.31,3.31,0,0,0,1.63.45h1.35l.05.25a2.87,2.87,0,0,1,0,.38,2.23,2.23,0,0,1-1.49,2.11h0a7.49,7.49,0,0,0,.61,1.47h0a2.28,2.28,0,0,1,1-.21,2.24,2.24,0,0,1,1.59.65A2.2,2.2,0,0,1,28.9,42l.05.35H26.31Z"/><path class="cls-1" d="M36.16,36.27H28.42l0-.18a3.88,3.88,0,0,1,7.66,0ZM28.8,36h7a3.58,3.58,0,0,0-7,0Z"/><path class="cls-2" d="M66,62a2,2,0,0,1-2,2H21a2,2,0,0,1-2-2V51a2,2,0,0,1,2-2H64a2,2,0,0,1,2,2Z"/><path class="cls-1" d="M25.68,60.16H24.13V52.84H27a2.11,2.11,0,0,1,2.25,2.33,2,2,0,0,1-1.29,2.07l1.44,2.92H27.63l-1.22-2.71h-.73Zm.9-3.93c.74,0,1-.27,1-.91V55c0-.64-.25-.9-1-.9h-.9v2.12Z"/><path class="cls-1" d="M29.92,56.5c0-2.39.9-3.79,2.86-3.79s2.87,1.4,2.87,3.79-.9,3.79-2.87,3.79S29.92,58.89,29.92,56.5Zm4,.63V55.86c0-1.18-.29-1.88-1.19-1.88s-1.18.7-1.18,1.88v1.28c0,1.18.29,1.88,1.18,1.88S34,58.32,34,57.13Z"/><path class="cls-1" d="M38.09,52.84v4.64c0,.93.07,1.54,1,1.54s1-.61,1-1.54V52.84h1.58v4.43c0,2-.44,3-2.57,3s-2.58-1-2.58-3V52.84Z"/><path class="cls-1" d="M46.18,54.13v6H44.6v-6H42.49V52.84h5.8v1.29Z"/><path class="cls-1" d="M49.38,60.16V52.84h4.69v1.29H51v1.68h3V57.1H51v1.77h3.11v1.29Z"/><path class="cls-1" d="M57.2,60.16H55.64V52.84h2.84a2.11,2.11,0,0,1,2.25,2.33,2,2,0,0,1-1.3,2.07l1.44,2.92H59.15l-1.23-2.71H57.2Zm.9-3.93c.74,0,1-.27,1-.91V55c0-.64-.25-.9-1-.9h-.9v2.12Z"/></svg>